<svg xmlns="http://www.w3.org/2000/svg" xml:space="preserve" width="1000" height="470" viewBox="0 0 1000 470" font-family="'Instrument Sans', -apple-system, BlinkMacSystemFont, 'Segoe UI', Helvetica, Arial, sans-serif">
  <style>@import url('https://fonts.googleapis.com/css2?family=Instrument+Sans:wght@400;500;600;700;800&amp;family=IBM+Plex+Mono:wght@400;500;600&amp;display=swap');
    .mono { font-family: 'IBM Plex Mono', ui-monospace, SFMono-Regular, Menlo, Consolas, monospace; }
    .lbl { font-size: 10.5px; font-weight: 700; letter-spacing: 1.1px; }
    .body { font-size: 12.5px; fill: #4A4458; }
    .title { font-size: 15px; font-weight: 700; fill: #1A1A2E; }
    .item { font-size: 12px; fill: #1A1A2E; }
    .muted { font-size: 11.5px; fill: #737373; }
  </style>
  <defs>
    <marker id="arr" viewBox="0 0 10 10" refX="9" refY="5" markerWidth="7" markerHeight="7" orient="auto-start-reverse"><path d="M0 0 L10 5 L0 10 Z" fill="#7C3AED"/></marker>
    <marker id="arrT" viewBox="0 0 10 10" refX="9" refY="5" markerWidth="7" markerHeight="7" orient="auto-start-reverse"><path d="M0 0 L10 5 L0 10 Z" fill="#0D9488"/></marker>
    <marker id="arrM" viewBox="0 0 10 10" refX="9" refY="5" markerWidth="7" markerHeight="7" orient="auto-start-reverse"><path d="M0 0 L10 5 L0 10 Z" fill="#A3A3A3"/></marker>
  </defs>

  <rect width="1000" height="470" fill="#FAF9FD"/>
  <!-- Logo paths copied verbatim from refactor-docs-install-page.svg. -->
  <g transform="translate(40,26) scale(0.0793)" fill="none" stroke-width="20"><path d="M274.811 240.3L142.406 316.428L10.0002 240.3V87.665L142.406 11.5352L274.811 87.665V240.3Z" stroke="#7C3AED"/><path d="M406.428 315.818L274.023 391.946L141.617 315.818V163.183L274.023 87.0532L406.428 163.183V315.818Z" stroke="#A78BFA"/><path d="M274.811 391.336L142.406 467.464L10.0002 391.336V238.701L142.406 162.571L274.811 238.701V391.336Z" stroke="#C084FC"/></g>
  <text x="88" y="52" font-size="24" font-weight="800" letter-spacing="-0.5" fill="#1A1A2E">Migrate from CLAUDE.md</text>
  <text x="88" y="74" font-size="12" font-weight="600" letter-spacing="1.1" fill="#6D28D9">ONE FILE BECOMES SEPARATE MEMORIES, EACH WITH A TYPE</text>
  <line x1="40" y1="96" x2="960" y2="96" stroke="#E4DFF1"/>
  <rect x="40" y="116" width="360" height="300" rx="10" fill="#FFFFFF" stroke="#E5E5E5" stroke-width="1"/>
  <text x="60" y="142" class="title mono">CLAUDE.md</text>
  <text x="60" y="172" class="item mono" fill="#1A1A2E">## Payments</text>
  <text x="60" y="198" class="item mono" fill="#4A4458">- Always send an idempotency key</text>
  <text x="60" y="224" class="item mono" fill="#1A1A2E">## Testing</text>
  <text x="60" y="250" class="item mono" fill="#4A4458">- We use Vitest, not Jest</text>
  <text x="60" y="276" class="item mono" fill="#1A1A2E">## Why Postgres</text>
  <text x="60" y="302" class="item mono" fill="#4A4458">- Chosen for row-level locks</text>
  <text x="60" y="328" class="item mono" fill="#1A1A2E">## Setup</text>
  <text x="60" y="354" class="item mono" fill="#4A4458">- Run pnpm install</text>
  <text x="60" y="380" class="item mono" fill="#4A4458">- I prefer tabs</text>
  <rect x="520" y="130" width="440" height="62" rx="10" fill="#F0FDFA" stroke="#0D9488" stroke-width="1.5"/>
  <text x="540" y="154" class="item mono" fill="#0D9488" font-weight="600">directive</text>
  <text x="540" y="176" class="title">Always send an idempotency key</text>
  <line x1="400" y1="190" x2="514" y2="161" stroke="#0D9488" stroke-width="2" marker-end="url(#arrT)"/>
  <rect x="520" y="206" width="440" height="62" rx="10" fill="#F0FDFA" stroke="#0D9488" stroke-width="1.5"/>
  <text x="540" y="230" class="item mono" fill="#0D9488" font-weight="600">convention</text>
  <text x="540" y="252" class="title">Tests use Vitest, not Jest</text>
  <line x1="400" y1="242" x2="514" y2="237" stroke="#0D9488" stroke-width="2" marker-end="url(#arrT)"/>
  <rect x="520" y="282" width="440" height="62" rx="10" fill="#F0FDFA" stroke="#0D9488" stroke-width="1.5"/>
  <text x="540" y="306" class="item mono" fill="#0D9488" font-weight="600">decision</text>
  <text x="540" y="328" class="title">Postgres chosen for row-level locks</text>
  <line x1="400" y1="294" x2="514" y2="313" stroke="#0D9488" stroke-width="2" marker-end="url(#arrT)"/>
  <rect x="520" y="360" width="440" height="56" rx="10" fill="#FFFFFF" stroke="#E5E5E5" stroke-width="1" stroke-dasharray="5 4"/>
  <text x="540" y="383" class="item" fill="#737373" font-weight="700">Left out</text>
  <text x="540" y="402" class="muted">setup steps, personal preferences</text>
  <line x1="400" y1="374" x2="514" y2="388" stroke="#A3A3A3" stroke-width="2" stroke-dasharray="4 4" marker-end="url(#arrM)"/>
  <text x="40" y="450" class="muted">Nothing is stored until you approve the preview. Your files are not changed.</text>
</svg>
